<mxfile host="app.diagrams.net" modified="2024-06-14T17:09:02.315Z" agent="Mozilla/5.0 (Windows NT 10.0; Win64; x64) AppleWebKit/537.36 (KHTML, like Gecko) Chrome/122.0.0.0 Safari/537.36" version="24.5.4" etag="IFW6MbaHERoqYWAbYjhV" type="github">
  <diagram name="PÃ¡gina-1" id="OrWwxHJ7hLuYZT9mBpEj">
    <mxGraphModel>
      <root>
        <mxCell id="0" />
        <mxCell id="1" parent="0" />
      </root>
    </mxGraphModel>
  </diagram>
</mxfile>
